<svg xmlns="http://www.w3.org/2000/svg" xmlns:xlink="http://www.w3.org/1999/xlink" width="390" height="590" viewBox="0 0 390 844">
  <defs>
    <clipPath id="clip-path">
      <rect id="Rectangle_24847" data-name="Rectangle 24847" width="390" height="844" transform="translate(-7242 -14209)" fill="#fff" stroke="#707070" stroke-width="1"/>
    </clipPath>
    <clipPath id="clip-path-2">
      <rect id="Rectangle_17749" data-name="Rectangle 17749" width="956.771" height="390" fill="#fff"/>
    </clipPath>
    <radialGradient id="radial-gradient" cx="0.49" cy="0.442" r="0.827" gradientTransform="translate(0 -0.221) scale(1 1.5)" gradientUnits="objectBoundingBox">
      <stop offset="0" stop-color="#fff"/>
      <stop offset="0.118" stop-color="#fffcd2"/>
      <stop offset="0.3" stop-color="#fff993"/>
      <stop offset="0.474" stop-color="#fff65e"/>
      <stop offset="0.635" stop-color="#fff435"/>
      <stop offset="0.782" stop-color="#fff318"/>
      <stop offset="0.907" stop-color="#fff206"/>
      <stop offset="0.998" stop-color="#fff200"/>
    </radialGradient>
    <clipPath id="clip-Payment_Process">
      <rect width="390" height="844"/>
    </clipPath>
  </defs>
  <g id="Payment_Process" data-name="Payment Process" clip-path="url(#clip-Payment_Process)">
    <rect width="390" height="844" fill="#fff"/>
    <g id="Mask_Group_32" data-name="Mask Group 32" transform="translate(7242 14209)" clip-path="url(#clip-path)">
      <g id="Group_118416" data-name="Group 118416" transform="translate(-6852 -14265) rotate(90)" opacity="0.5" style="isolation: isolate">
        <g id="Group_118414" data-name="Group 118414" opacity="0.5" clip-path="url(#clip-path-2)">
          <rect id="Rectangle_17748" data-name="Rectangle 17748" width="956.771" height="390" fill="#fff"/>
          <path id="Path_368184" data-name="Path 368184" d="M388.568-586.89a21.407,21.407,0,0,1-21.414-21.4,21.407,21.407,0,0,1,21.414-21.4,21.407,21.407,0,0,1,21.414,21.4A21.407,21.407,0,0,1,388.568-586.89Zm0-55.189a33.8,33.8,0,0,0-33.812,33.789A33.8,33.8,0,0,0,388.568-574.5,33.8,33.8,0,0,0,422.38-608.29,33.8,33.8,0,0,0,388.568-642.08Zm0,73.256a39.48,39.48,0,0,1-39.493-39.467,39.48,39.48,0,0,1,39.493-39.467,39.48,39.48,0,0,1,39.493,39.467A39.48,39.48,0,0,1,388.568-568.824Zm0-91.031a51.581,51.581,0,0,0-51.6,51.564,51.581,51.581,0,0,0,51.6,51.564,51.581,51.581,0,0,0,51.6-51.564A51.581,51.581,0,0,0,388.568-659.855Zm0,109.1A57.553,57.553,0,0,1,331-608.29a57.553,57.553,0,0,1,57.572-57.533A57.553,57.553,0,0,1,446.14-608.29,57.553,57.553,0,0,1,388.568-550.757Zm0-126.873a69.362,69.362,0,0,0-69.385,69.339,69.362,69.362,0,0,0,69.385,69.339,69.362,69.362,0,0,0,69.385-69.339A69.362,69.362,0,0,0,388.568-677.629Zm0,144.939a75.626,75.626,0,0,1-75.651-75.6,75.626,75.626,0,0,1,75.651-75.6,75.626,75.626,0,0,1,75.651,75.6A75.626,75.626,0,0,1,388.568-532.69Zm0-162.714A87.143,87.143,0,0,0,301.4-608.29a87.143,87.143,0,0,0,87.172,87.114A87.143,87.143,0,0,0,475.74-608.29,87.143,87.143,0,0,0,388.568-695.4Zm0,180.781a93.7,93.7,0,0,1-93.73-93.667,93.7,93.7,0,0,1,93.73-93.667A93.7,93.7,0,0,1,482.3-608.29,93.7,93.7,0,0,1,388.568-514.623Zm0-198.556A104.924,104.924,0,0,0,283.609-608.29,104.924,104.924,0,0,0,388.568-503.4,104.924,104.924,0,0,0,493.527-608.29,104.924,104.924,0,0,0,388.568-713.179Zm0,216.623A111.772,111.772,0,0,1,276.759-608.29,111.772,111.772,0,0,1,388.568-720.024,111.772,111.772,0,0,1,500.377-608.29,111.772,111.772,0,0,1,388.568-496.556Zm0-234.4A122.7,122.7,0,0,0,265.822-608.29,122.7,122.7,0,0,0,388.568-485.627,122.7,122.7,0,0,0,511.314-608.29,122.7,122.7,0,0,0,388.568-730.954Zm0,252.464A129.844,129.844,0,0,1,258.68-608.29a129.845,129.845,0,0,1,129.888-129.8,129.845,129.845,0,0,1,129.888,129.8A129.844,129.844,0,0,1,388.568-478.489Zm0-270.239A140.485,140.485,0,0,0,248.035-608.29,140.486,140.486,0,0,0,388.568-467.852,140.486,140.486,0,0,0,529.1-608.29,140.485,140.485,0,0,0,388.568-748.729Zm0,288.306A147.918,147.918,0,0,1,240.6-608.29,147.917,147.917,0,0,1,388.568-756.158,147.917,147.917,0,0,1,536.535-608.29,147.918,147.918,0,0,1,388.568-460.422Zm0-306.081c-87.437,0-158.319,70.834-158.319,158.213S301.13-450.077,388.568-450.077,546.887-520.912,546.887-608.29,476.005-766.5,388.568-766.5Zm0,324.148c-91.7,0-166.046-74.291-166.046-165.935s74.341-165.934,166.046-165.934S554.614-699.934,554.614-608.29,480.272-442.356,388.568-442.356Zm0-341.923c-97.261,0-176.106,78.792-176.106,175.988S291.307-432.3,388.568-432.3,564.674-511.095,564.674-608.29,485.829-784.278,388.568-784.278Zm0,359.989c-101.689,0-184.125-82.38-184.125-184s82.436-184,184.125-184,184.125,82.38,184.125,184S490.257-424.289,388.568-424.289Zm0-377.764c-107.084,0-193.893,86.751-193.893,193.763s86.809,193.763,193.893,193.763,193.893-86.75,193.893-193.763S495.652-802.053,388.568-802.053Zm0,395.831c-111.674,0-202.2-90.469-202.2-202.068s90.53-202.068,202.2-202.068,202.2,90.469,202.2,202.068S500.242-406.222,388.568-406.222Zm0-413.606c-116.907,0-211.68,94.709-211.68,211.538s94.772,211.538,211.68,211.538,211.68-94.709,211.68-211.538S505.475-819.828,388.568-819.828Zm0,431.673c-121.659,0-220.283-98.557-220.283-220.135s98.624-220.135,220.283-220.135S608.851-729.868,608.851-608.29,510.227-388.155,388.568-388.155Zm0-449.447C261.837-837.6,159.1-734.936,159.1-608.29S261.837-378.978,388.568-378.978,618.034-481.645,618.034-608.29,515.3-837.6,388.568-837.6Zm0,467.514c-131.644,0-238.362-106.646-238.362-238.2s106.718-238.2,238.362-238.2S626.93-739.846,626.93-608.29,520.212-370.088,388.568-370.088Zm0-485.289c-136.554,0-247.253,110.625-247.253,247.087S252.014-361.2,388.568-361.2,635.821-471.828,635.821-608.29,525.122-855.377,388.568-855.377Zm0,503.356c-141.628,0-256.441-114.736-256.441-256.269S246.94-864.559,388.568-864.559,645.009-749.824,645.009-608.29,530.2-352.021,388.568-352.021Zm0-521.131c-146.377,0-265.04,118.583-265.04,264.862S242.19-343.428,388.568-343.428s265.04-118.583,265.04-264.862S534.945-873.153,388.568-873.153Zm0,539.2c-151.613,0-274.52-122.824-274.52-274.335s122.907-274.336,274.52-274.336S663.088-759.8,663.088-608.29,540.181-333.955,388.568-333.955Zm0-556.972c-156.2,0-282.827,126.541-282.827,282.637S232.367-325.653,388.568-325.653,671.395-452.194,671.395-608.29,544.769-890.927,388.568-890.927Zm0,575.039c-161.6,0-292.6-130.913-292.6-292.4s131-292.4,292.6-292.4,292.6,130.913,292.6,292.4S550.166-315.888,388.568-315.888Zm0-592.814C222.544-908.7,87.954-774.2,87.954-608.29S222.544-307.879,388.568-307.879s300.614-134.5,300.614-300.412S554.592-908.7,388.568-908.7Zm0,610.881c-171.583,0-310.678-139-310.678-310.469S216.985-918.76,388.568-918.76s310.678,139,310.678,310.469S560.151-297.821,388.568-297.821Zm0-628.656c-175.848,0-318.4,142.457-318.4,318.186S212.72-290.1,388.568-290.1s318.4-142.457,318.4-318.186S564.416-926.477,388.568-926.477Zm0,646.723C207-279.754,59.811-426.845,59.811-608.29S207-936.826,388.568-936.826,717.325-789.736,717.325-608.29,570.135-279.754,388.568-279.754Zm0-664.5C202.9-944.252,52.381-793.837,52.381-608.29S202.9-272.329,388.568-272.329,724.755-422.744,724.755-608.29,574.239-944.252,388.568-944.252Zm0,682.564c-191.552,0-346.836-155.18-346.836-346.6s155.284-346.6,346.836-346.6S735.4-799.714,735.4-608.29,580.12-261.687,388.568-261.687Zm0-700.339c-195.495,0-353.974,158.373-353.974,353.736S193.073-254.554,388.568-254.554,742.542-412.927,742.542-608.29,584.063-962.026,388.568-962.026Zm0,718.406c-201.537,0-364.915-163.268-364.915-364.67S187.031-972.96,388.568-972.96,753.483-809.692,753.483-608.29,590.1-243.62,388.568-243.62Zm0-736.181C183.25-979.8,16.807-813.47,16.807-608.29S183.25-236.779,388.568-236.779,760.329-403.11,760.329-608.29,593.886-979.8,388.568-979.8Zm0,754.248C177.046-225.554,5.574-396.91,5.574-608.29S177.046-991.027,388.568-991.027,771.562-819.67,771.562-608.29,600.089-225.554,388.568-225.554Zm0-772.023C173.427-997.576-.98-823.287-.98-608.29S173.427-219,388.568-219,778.115-393.294,778.115-608.29,603.709-997.576,388.568-997.576Zm0,790.09C167.061-207.487-12.5-386.932-12.5-608.29s179.566-400.8,401.073-400.8,401.073,179.446,401.073,400.8S610.075-207.487,388.568-207.487Zm0-807.864C163.6-1015.351-18.766-833.1-18.766-608.29S163.6-201.23,388.568-201.23,795.9-383.477,795.9-608.29,613.533-1015.351,388.568-1015.351Zm0,825.931c-231.491,0-419.152-187.535-419.152-418.87s187.661-418.87,419.152-418.87S807.72-839.626,807.72-608.29,620.059-189.42,388.568-189.42Zm0-843.706c-234.788,0-425.121,190.205-425.121,424.836S153.78-183.455,388.568-183.455,813.689-373.66,813.689-608.29,623.356-1033.126,388.568-1033.126Zm0,861.773c-241.476,0-437.231-195.624-437.231-436.937s195.755-436.937,437.231-436.937S825.8-849.6,825.8-608.29,630.044-171.353,388.568-171.353Zm0-879.548C143.956-1050.9-54.34-852.737-54.34-608.29S143.956-165.68,388.568-165.68,831.476-363.843,831.476-608.29,633.179-1050.9,388.568-1050.9Zm0,897.615c-251.461,0-455.309-203.712-455.309-455s203.849-455,455.309-455,455.31,203.712,455.31,455S640.029-153.286,388.568-153.286Zm0-915.389c-254.434,0-460.695,206.122-460.695,460.385s206.26,460.385,460.695,460.385S849.263-354.026,849.263-608.29,643-1068.676,388.568-1068.676Zm0,933.456c-261.445,0-473.389-211.8-473.389-473.071s211.943-473.071,473.389-473.071S861.957-869.56,861.957-608.29,650.013-135.219,388.568-135.219Zm0-951.231c-264.258,0-478.481,214.079-478.481,478.16S124.31-130.13,388.568-130.13,867.049-344.21,867.049-608.29,652.826-1086.45,388.568-1086.45Zm0,969.3c-271.43,0-491.468-219.89-491.468-491.138s220.038-491.138,491.468-491.138S880.036-879.538,880.036-608.29,660-117.152,388.568-117.152Zm0-987.073c-274.081,0-496.268,222.037-496.268,495.935S114.487-112.356,388.568-112.356,884.836-334.393,884.836-608.29,662.649-1104.225,388.568-1104.225Zm0,1005.139c-281.415,0-509.547-227.979-509.547-509.2s228.132-509.2,509.547-509.2,509.547,227.978,509.547,509.2S669.983-99.086,388.568-99.086Zm0-1022.914c-283.9,0-514.055,230-514.055,513.71s230.15,513.71,514.055,513.71,514.055-230,514.055-513.71S672.473-1122,388.568-1122Zm0,497.865a15.85,15.85,0,0,0-15.856,15.845,15.85,15.85,0,0,0,15.856,15.845,15.85,15.85,0,0,0,15.856-15.845A15.85,15.85,0,0,0,388.568-624.135Z" transform="translate(89.818 803.29)" opacity="0.15" fill="url(#radial-gradient)"/>
        </g>
      </g>
    </g>
    <text id="Your_payment_is_processing" data-name="Your payment is processing" transform="translate(52 541)" font-size="20" font-family="Poppins-Bold, Poppins" font-weight="700" style="mix-blend-mode: luminosity;isolation: isolate"><tspan x="0" y="0">Your payment is processing</tspan></text>
    <g id="Group_147916" data-name="Group 147916">
      <g id="Group_143146" data-name="Group 143146" transform="translate(-313.862 -316.218)">
        <g id="Group_143143" data-name="Group 143143" transform="translate(357.862 526.218)">
          <g id="Group_143142" data-name="Group 143142" transform="translate(0)">
            <g id="Group_143140" data-name="Group 143140">
              <path id="Path_372468" data-name="Path 372468" d="M364.891,637.913a24,24,0,0,0,30.3,2.984L378.11,657.98a24,24,0,0,0,30.3,36.923l-8.966,8.966a24,24,0,0,0,30.3,36.923l-2.19,2.19A24,24,0,1,0,461.5,776.92l22.741-22.741a24,24,0,0,0,36.923,30.3l34.553-34.553a24,24,0,0,0,36.923,30.3l53.793-53.793a24,24,0,0,0-30.3-36.923l11.26-11.26a24,24,0,0,0-30.3-36.923l22.741-22.742a24,24,0,0,0-30.3-36.923l14.482-14.482a24,24,0,1,0-33.939-33.939L537.81,565.506a24,24,0,0,0-36.923-30.3l-45.28,45.281a24,24,0,0,0-36.923-30.3l-53.793,53.793a24,24,0,0,0,0,33.939Z" transform="translate(-357.862 -526.218)" fill="#fff"/>
              <path id="Path_372469" data-name="Path 372469" d="M3612.569,2858.247l-1.66,1.661a1.662,1.662,0,0,0,2.35,2.35l1.66-1.66,1.661,1.66a1.662,1.662,0,0,0,2.35-2.35l-1.66-1.661,1.66-1.66a1.662,1.662,0,0,0-2.35-2.35l-1.661,1.661-1.66-1.661a1.662,1.662,0,0,0-2.35,2.35Z" transform="translate(-3317.678 -2644.262)" fill="#fff"/>
              <path id="Path_372470" data-name="Path 372470" d="M976.31,3255.738l-1.66,1.66a1.662,1.662,0,0,0,2.35,2.35l1.66-1.66,1.66,1.66a1.662,1.662,0,0,0,2.35-2.35l-1.66-1.66,1.66-1.66a1.662,1.662,0,0,0-2.35-2.351l-1.66,1.661-1.66-1.661a1.662,1.662,0,0,0-2.35,2.351Z" transform="translate(-918.693 -3005.977)" fill="#fff"/>
              <path id="Path_372471" data-name="Path 372471" d="M504.252,1620.4l-1.66,1.66a1.662,1.662,0,0,0,2.35,2.35l1.66-1.66,1.66,1.66a1.662,1.662,0,1,0,2.35-2.35l-1.66-1.66,1.66-1.66a1.662,1.662,0,0,0-2.35-2.35l-1.66,1.66-1.66-1.66a1.662,1.662,0,0,0-2.35,2.35Z" transform="translate(-489.122 -1517.824)" fill="#fff"/>
              <path id="Path_372472" data-name="Path 372472" d="M2724.84,672.227l-1.66,1.66a1.662,1.662,0,0,0,2.35,2.35l1.66-1.66,1.66,1.66a1.662,1.662,0,0,0,2.351-2.35l-1.66-1.66,1.66-1.66a1.662,1.662,0,1,0-2.351-2.35l-1.66,1.66-1.66-1.66a1.662,1.662,0,0,0-2.35,2.35Z" transform="translate(-2509.848 -654.993)" fill="#fff"/>
              <path id="Path_372473" data-name="Path 372473" d="M2359.672,3326.931a4.855,4.855,0,1,1-4.855,4.854A4.86,4.86,0,0,1,2359.672,3326.931Zm0,6.385a1.531,1.531,0,1,0-1.531-1.531A1.533,1.533,0,0,0,2359.672,3333.316Z" transform="translate(-2175.083 -3074.855)" fill="#fff"/>
              <path id="Path_372474" data-name="Path 372474" d="M3376.273,1608.163a4.855,4.855,0,1,1-4.855,4.855A4.86,4.86,0,0,1,3376.273,1608.163Zm0,6.386a1.531,1.531,0,1,0-1.531-1.531A1.532,1.532,0,0,0,3376.273,1614.549Z" transform="translate(-3100.185 -1510.783)" fill="#fff"/>
              <path id="Path_372475" data-name="Path 372475" d="M1118.219,742.474a4.855,4.855,0,1,1-4.855,4.855A4.86,4.86,0,0,1,1118.219,742.474Zm0,6.386a1.531,1.531,0,1,0-1.531-1.531A1.533,1.533,0,0,0,1118.219,748.86Z" transform="translate(-1045.366 -723.01)" fill="#fff"/>
              <path id="Path_372476" data-name="Path 372476" d="M489.832,2426.622a4.855,4.855,0,1,1-4.855,4.855A4.86,4.86,0,0,1,489.832,2426.622Zm0,6.386a1.531,1.531,0,1,0-1.531-1.531A1.533,1.533,0,0,0,489.832,2433.008Z" transform="translate(-473.536 -2255.577)" fill="#fff"/>
            </g>
            <g id="Group_143141" data-name="Group 143141">
              <path id="Path_372477" data-name="Path 372477" d="M364.891,637.913a24,24,0,0,0,30.3,2.984L378.11,657.98a24,24,0,0,0,30.3,36.923l-8.966,8.966a24,24,0,0,0,30.3,36.923l-2.19,2.19A24,24,0,1,0,461.5,776.92l22.741-22.741a24,24,0,0,0,36.923,30.3l34.553-34.553a24,24,0,0,0,36.923,30.3l53.793-53.793a24,24,0,0,0-30.3-36.923l11.26-11.26a24,24,0,0,0-30.3-36.923l22.741-22.742a24,24,0,0,0-30.3-36.923l14.482-14.482a24,24,0,1,0-33.939-33.939L537.81,565.506a24,24,0,0,0-36.923-30.3l-45.28,45.281a24,24,0,0,0-36.923-30.3l-53.793,53.793a24,24,0,0,0,0,33.939Z" transform="translate(-357.862 -526.218)" fill="#efefef"/>
              <path id="Path_372478" data-name="Path 372478" d="M3612.569,2858.247l-1.66,1.661a1.662,1.662,0,0,0,2.35,2.35l1.66-1.66,1.661,1.66a1.662,1.662,0,0,0,2.35-2.35l-1.66-1.661,1.66-1.66a1.662,1.662,0,0,0-2.35-2.35l-1.661,1.661-1.66-1.661a1.662,1.662,0,0,0-2.35,2.35Z" transform="translate(-3317.678 -2644.262)" fill="#ff6050"/>
              <path id="Path_372479" data-name="Path 372479" d="M976.31,3255.738l-1.66,1.66a1.662,1.662,0,0,0,2.35,2.35l1.66-1.66,1.66,1.66a1.662,1.662,0,0,0,2.35-2.35l-1.66-1.66,1.66-1.66a1.662,1.662,0,0,0-2.35-2.351l-1.66,1.661-1.66-1.661a1.662,1.662,0,0,0-2.35,2.351Z" transform="translate(-918.693 -3005.977)" fill="#ff6050"/>
              <path id="Path_372480" data-name="Path 372480" d="M504.252,1620.4l-1.66,1.66a1.662,1.662,0,0,0,2.35,2.35l1.66-1.66,1.66,1.66a1.662,1.662,0,1,0,2.35-2.35l-1.66-1.66,1.66-1.66a1.662,1.662,0,0,0-2.35-2.35l-1.66,1.66-1.66-1.66a1.662,1.662,0,0,0-2.35,2.35Z" transform="translate(-489.122 -1517.824)" fill="#ff6050"/>
              <path id="Path_372481" data-name="Path 372481" d="M2724.84,672.227l-1.66,1.66a1.662,1.662,0,0,0,2.35,2.35l1.66-1.66,1.66,1.66a1.662,1.662,0,0,0,2.351-2.35l-1.66-1.66,1.66-1.66a1.662,1.662,0,1,0-2.351-2.35l-1.66,1.66-1.66-1.66a1.662,1.662,0,0,0-2.35,2.35Z" transform="translate(-2509.848 -654.993)" fill="#ff6050"/>
              <path id="Path_372482" data-name="Path 372482" d="M2359.672,3326.931a4.855,4.855,0,1,1-4.855,4.854A4.86,4.86,0,0,1,2359.672,3326.931Zm0,6.385a1.531,1.531,0,1,0-1.531-1.531A1.533,1.533,0,0,0,2359.672,3333.316Z" transform="translate(-2175.083 -3074.855)" fill="#ff6050"/>
              <path id="Path_372483" data-name="Path 372483" d="M3376.273,1608.163a4.855,4.855,0,1,1-4.855,4.855A4.86,4.86,0,0,1,3376.273,1608.163Zm0,6.386a1.531,1.531,0,1,0-1.531-1.531A1.532,1.532,0,0,0,3376.273,1614.549Z" transform="translate(-3100.185 -1510.783)" fill="#ff6050"/>
              <path id="Path_372484" data-name="Path 372484" d="M1118.219,742.474a4.855,4.855,0,1,1-4.855,4.855A4.86,4.86,0,0,1,1118.219,742.474Zm0,6.386a1.531,1.531,0,1,0-1.531-1.531A1.533,1.533,0,0,0,1118.219,748.86Z" transform="translate(-1045.366 -723.01)" fill="#ff6050"/>
              <path id="Path_372485" data-name="Path 372485" d="M489.832,2426.622a4.855,4.855,0,1,1-4.855,4.855A4.86,4.86,0,0,1,489.832,2426.622Zm0,6.386a1.531,1.531,0,1,0-1.531-1.531A1.533,1.533,0,0,0,489.832,2433.008Z" transform="translate(-473.536 -2255.577)" fill="#ff6050"/>
            </g>
          </g>
        </g>
      </g>
      <g id="ICON" transform="translate(109.414 251.208)">
        <path id="Path_373560" data-name="Path 373560" d="M144.455,100.076a59.617,59.617,0,0,1-116.583,5.457,3.823,3.823,0,0,0-7.4,1.908,67.261,67.261,0,0,0,131.871-8.525l2.014,1.867a3.822,3.822,0,1,0,5.2-5.607l-7.928-7.349a3.823,3.823,0,0,0-5.2,0L138.5,95.175a3.823,3.823,0,1,0,5.2,5.607ZM85.6,44.787A45.872,45.872,0,1,1,39.724,90.658,45.893,45.893,0,0,1,85.6,44.787ZM18.852,82.345l-2.014-1.867a3.823,3.823,0,0,0-5.2,5.607l7.928,7.348a3.822,3.822,0,0,0,5.2,0L32.7,86.085a3.823,3.823,0,1,0-5.2-5.607l-.761.706A59.617,59.617,0,0,1,143.32,75.728a3.823,3.823,0,1,0,7.4-1.909A67.261,67.261,0,0,0,18.852,82.345Z" transform="translate(0.168 0.412)" fill="#f20000" fill-rule="evenodd"/>
        <path id="Path_373561" data-name="Path 373561" d="M-1.772,12.569H-.681q1.564,0,3.019-.036a11.352,11.352,0,0,0,2.764-.4A8,8,0,0,0,7.575,10.95,8.149,8.149,0,0,0,9.721,8.568H-7.7A24.028,24.028,0,0,1-6.555,6.222q.709-1.291,1.4-2.455.8-1.346,1.673-2.691H8.412A1.935,1.935,0,0,0,7.957-.016,6.053,6.053,0,0,0,6.775-1.2a7.7,7.7,0,0,0-1.582-.946,3.975,3.975,0,0,0-1.619-.382H-8.137q.291-.436.837-1.218t1.2-1.691q.655-.909,1.328-1.873t1.237-1.746q.564-.782.946-1.273a2.96,2.96,0,0,1,.418-.491H26.961a2.042,2.042,0,0,1-.218.655q-.255.618-.636,1.528T25.27-6.653q-.455,1.073-.855,1.982t-.691,1.528l-.291.618H19.4l.255.691q.145.509.327,1.091T20.3.348q.145.509.182.727h9.529L25.542,8.568H20.814a12.765,12.765,0,0,1-2,4.837,12.032,12.032,0,0,1-3.273,3.146,16.335,16.335,0,0,1-4.092,1.891,33.416,33.416,0,0,1-4.455,1.037L21.832,39.92v2.946H11.576l-17.6-23.459v-6.8h2.691Q-2.536,12.605-1.772,12.569Z" transform="translate(75.005 74.228)" fill="#fff"/>
      </g>
    </g>
  </g>
</svg>
